<?xml version="1.0" encoding="UTF-8"?>
<svg xmlns="http://www.w3.org/2000/svg" xmlns:xlink="http://www.w3.org/1999/xlink" width="49pt" height="18pt" viewBox="0 0 49 18" version="1.1">
<g id="surface1">
<path style=" stroke:none;fill-rule:nonzero;fill:rgb(20%,20%,20%);fill-opacity:1;" d="M 10.15625 6.359375 L 8.933594 6.359375 L 7.164062 11.039062 L 8.273438 11.039062 L 8.558594 10.242188 L 10.230469 10.242188 L 9.929688 9.371094 L 8.828125 9.371094 L 9.542969 7.355469 L 10.816406 11.039062 L 11.925781 11.039062 Z M 28.761719 11.039062 L 28.761719 6.359375 L 29.746094 6.359375 L 29.746094 10.160156 L 31.683594 10.160156 L 31.683594 11.039062 Z M 34.429688 11.039062 L 34.429688 6.359375 L 35.417969 6.359375 L 35.417969 10.160156 L 37.355469 10.160156 L 37.355469 11.039062 Z M 23.3125 7.199219 C 24.128906 7.199219 24.789062 7.871094 24.789062 8.703125 C 24.789062 9.535156 24.128906 10.207031 23.3125 10.207031 C 22.496094 10.207031 21.835938 9.535156 21.835938 8.703125 C 21.835938 7.871094 22.5 7.199219 23.3125 7.199219 M 23.3125 6.285156 C 22 6.285156 20.9375 7.367188 20.9375 8.703125 C 20.9375 10.039062 22 11.121094 23.3125 11.121094 C 24.621094 11.121094 25.683594 10.039062 25.683594 8.703125 C 25.683594 7.367188 24.621094 6.285156 23.3125 6.285156 Z M 41.882812 7.199219 C 42.699219 7.199219 43.355469 7.871094 43.355469 8.703125 C 43.355469 9.535156 42.699219 10.207031 41.882812 10.207031 C 41.066406 10.207031 40.40625 9.535156 40.40625 8.703125 C 40.40625 7.871094 41.066406 7.199219 41.882812 7.199219 M 41.882812 6.285156 C 40.570312 6.285156 39.507812 7.367188 39.507812 8.703125 C 39.507812 10.039062 40.570312 11.121094 41.882812 11.121094 C 43.191406 11.121094 44.253906 10.039062 44.253906 8.703125 C 44.253906 7.367188 43.191406 6.285156 41.882812 6.285156 Z M 16.929688 6.359375 L 14.785156 6.359375 L 14.785156 11.039062 L 15.765625 11.039062 L 15.765625 9.425781 L 16.929688 9.425781 C 17.742188 9.425781 18.402344 8.722656 18.402344 7.890625 C 18.402344 7.0625 17.742188 6.359375 16.929688 6.359375 Z M 16.929688 8.511719 L 15.765625 8.511719 L 15.765625 7.273438 L 16.929688 7.273438 C 17.246094 7.273438 17.507812 7.566406 17.507812 7.890625 C 17.507812 8.214844 17.246094 8.511719 16.929688 8.511719 Z M 16.929688 8.511719 "/>
<path style=" stroke:none;fill-rule:nonzero;fill:rgb(20%,20%,20%);fill-opacity:1;" d="M 13.945312 12.457031 C 13.859375 12.457031 13.785156 12.496094 13.738281 12.5625 C 13.738281 12.5625 13.515625 12.820312 13.402344 12.945312 C 12.898438 13.457031 12.3125 13.859375 11.664062 14.140625 C 10.988281 14.433594 10.273438 14.578125 9.53125 14.578125 C 8.792969 14.578125 8.074219 14.429688 7.402344 14.140625 C 6.75 13.859375 6.160156 13.457031 5.664062 12.945312 C 5.160156 12.429688 4.765625 11.835938 4.488281 11.171875 C 4.203125 10.484375 4.0625 9.753906 4.0625 9 C 4.0625 8.246094 4.207031 7.515625 4.488281 6.828125 C 4.761719 6.164062 5.152344 5.566406 5.65625 5.054688 C 6.160156 4.542969 6.746094 4.140625 7.394531 3.859375 C 8.070312 3.566406 8.785156 3.421875 9.527344 3.421875 C 10.265625 3.421875 10.984375 3.570312 11.65625 3.859375 C 12.132812 4.066406 12.570312 4.332031 12.96875 4.660156 C 12.949219 4.722656 12.933594 4.792969 12.933594 4.867188 C 12.933594 5.214844 13.210938 5.496094 13.550781 5.496094 C 13.894531 5.496094 14.171875 5.214844 14.171875 4.867188 C 14.171875 4.515625 13.894531 4.234375 13.550781 4.234375 C 13.464844 4.234375 13.386719 4.25 13.316406 4.285156 C 12.28125 3.421875 10.96875 2.90625 9.527344 2.90625 C 6.226562 2.90625 3.550781 5.632812 3.550781 9 C 3.550781 12.367188 6.226562 15.09375 9.53125 15.09375 C 11.382812 15.09375 13.027344 14.242188 14.125 12.898438 C 14.171875 12.851562 14.203125 12.785156 14.203125 12.71875 C 14.195312 12.574219 14.082031 12.457031 13.945312 12.457031 Z M 13.945312 12.457031 "/>
</g>
</svg>
