<?xml version="1.0" encoding="UTF-8"?>
<svg xmlns="http://www.w3.org/2000/svg" xmlns:xlink="http://www.w3.org/1999/xlink" width="18pt" height="18pt" viewBox="0 0 18 18" version="1.1">
<g id="surface1">
<path style=" stroke:none;fill-rule:nonzero;fill:rgb(0%,0%,0%);fill-opacity:1;" d="M 8.785156 0.0117188 C 8.75 0.015625 8.621094 0.0234375 8.5 0.0351562 C 6.972656 0.152344 5.421875 0.734375 4.148438 1.667969 C 3.730469 1.976562 3.398438 2.265625 3.027344 2.644531 C 0.902344 4.835938 0.0234375 7.96875 0.6875 11.015625 C 0.960938 12.265625 1.542969 13.519531 2.3125 14.53125 C 3.523438 16.117188 5.179688 17.238281 7.039062 17.722656 C 7.796875 17.917969 8.425781 18 9.21875 18 C 10.003906 18 10.578125 17.925781 11.324219 17.742188 C 12.398438 17.46875 13.339844 17.023438 14.28125 16.347656 C 15.183594 15.695312 16.023438 14.78125 16.625 13.800781 C 17.402344 12.527344 17.84375 11.125 17.953125 9.585938 C 17.976562 9.261719 17.960938 8.457031 17.929688 8.128906 C 17.859375 7.472656 17.691406 6.605469 17.589844 6.425781 C 17.550781 6.355469 17.4375 6.261719 17.355469 6.234375 C 17.328125 6.222656 17.261719 6.214844 17.210938 6.214844 C 16.980469 6.214844 16.789062 6.414062 16.789062 6.644531 C 16.789062 6.699219 16.8125 6.832031 16.847656 6.972656 C 17.152344 8.1875 17.175781 9.515625 16.917969 10.730469 C 16.585938 12.289062 15.851562 13.660156 14.738281 14.785156 C 14.21875 15.308594 13.71875 15.695312 13.074219 16.074219 C 11.5625 16.964844 9.6875 17.300781 7.925781 17 C 6.589844 16.769531 5.429688 16.242188 4.328125 15.359375 C 3.808594 14.945312 3.175781 14.261719 2.785156 13.6875 C 2.109375 12.699219 1.683594 11.65625 1.464844 10.449219 C 1.351562 9.832031 1.316406 9.011719 1.367188 8.347656 C 1.445312 7.335938 1.691406 6.398438 2.109375 5.511719 C 2.300781 5.097656 2.421875 4.882812 2.652344 4.523438 C 3.125 3.792969 3.746094 3.105469 4.4375 2.5625 C 5.246094 1.921875 6.207031 1.433594 7.179688 1.171875 C 7.703125 1.03125 8.121094 0.960938 8.652344 0.921875 C 10.578125 0.78125 12.449219 1.351562 13.976562 2.542969 C 14.089844 2.632812 14.207031 2.726562 14.238281 2.757812 L 14.296875 2.808594 L 14.273438 2.875 C 14.15625 3.214844 14.246094 3.640625 14.492188 3.933594 C 14.621094 4.085938 14.847656 4.226562 15.042969 4.273438 C 15.175781 4.308594 15.40625 4.308594 15.542969 4.273438 C 15.882812 4.191406 16.199219 3.890625 16.300781 3.558594 C 16.414062 3.183594 16.347656 2.816406 16.117188 2.515625 C 15.859375 2.1875 15.417969 2.039062 15.007812 2.148438 L 14.921875 2.171875 L 14.796875 2.066406 C 14.285156 1.625 13.667969 1.222656 13.019531 0.898438 C 11.96875 0.375 10.914062 0.09375 9.707031 0.015625 C 9.476562 0.00390625 8.933594 0 8.785156 0.0117188 Z M 8.785156 0.0117188 "/>
<path style=" stroke:none;fill-rule:nonzero;fill:rgb(0%,0%,0%);fill-opacity:1;" d="M 7.878906 5.1875 C 7.714844 5.621094 7.363281 6.5625 7.09375 7.285156 C 6.824219 8.007812 6.269531 9.492188 5.859375 10.582031 C 5.453125 11.671875 5.113281 12.570312 5.113281 12.574219 C 5.105469 12.582031 5.535156 12.585938 6.066406 12.585938 L 7.027344 12.585938 L 7.082031 12.425781 C 7.113281 12.335938 7.226562 12.027344 7.332031 11.734375 L 7.527344 11.203125 L 8.96875 11.203125 C 10.121094 11.203125 10.414062 11.199219 10.410156 11.183594 C 10.394531 11.140625 10.160156 10.449219 10.03125 10.078125 L 9.898438 9.683594 L 8.941406 9.675781 L 7.988281 9.667969 L 8.609375 7.910156 C 8.980469 6.851562 9.234375 6.160156 9.238281 6.175781 C 9.246094 6.1875 9.492188 6.914062 9.792969 7.785156 C 10.089844 8.65625 10.582031 10.09375 10.886719 10.976562 L 11.433594 12.578125 L 12.390625 12.585938 C 12.917969 12.585938 13.347656 12.585938 13.347656 12.582031 C 13.347656 12.578125 13.222656 12.242188 13.070312 11.839844 C 12.917969 11.433594 12.589844 10.558594 12.34375 9.898438 C 12.097656 9.234375 11.816406 8.492188 11.722656 8.246094 C 11.632812 8 11.472656 7.570312 11.367188 7.292969 C 11.265625 7.015625 10.992188 6.292969 10.765625 5.679688 C 10.535156 5.070312 10.335938 4.535156 10.316406 4.488281 L 10.289062 4.40625 L 8.171875 4.40625 Z M 7.878906 5.1875 "/>
</g>
</svg>
