<?xml version="1.0" encoding="UTF-8"?>
<svg xmlns="http://www.w3.org/2000/svg" xmlns:xlink="http://www.w3.org/1999/xlink" width="27pt" height="18pt" viewBox="0 0 27 18" version="1.1">
<g id="surface1">
<path style=" stroke:none;fill-rule:nonzero;fill:rgb(14.509804%,18.431373%,24.313725%);fill-opacity:1;" d="M 9.121094 7.359375 C 9.121094 7.605469 9.148438 7.804688 9.195312 7.953125 C 9.25 8.097656 9.316406 8.257812 9.410156 8.433594 C 9.441406 8.484375 9.457031 8.539062 9.457031 8.585938 C 9.457031 8.652344 9.414062 8.71875 9.328125 8.785156 L 8.90625 9.066406 C 8.847656 9.105469 8.789062 9.125 8.734375 9.125 C 8.667969 9.125 8.601562 9.09375 8.535156 9.035156 C 8.441406 8.933594 8.359375 8.828125 8.292969 8.71875 C 8.226562 8.605469 8.160156 8.480469 8.085938 8.324219 C 7.566406 8.941406 6.914062 9.246094 6.125 9.246094 C 5.5625 9.246094 5.117188 9.085938 4.789062 8.765625 C 4.464844 8.445312 4.296875 8.019531 4.296875 7.484375 C 4.296875 6.917969 4.496094 6.457031 4.902344 6.109375 C 5.3125 5.761719 5.851562 5.589844 6.539062 5.589844 C 6.765625 5.589844 7 5.609375 7.246094 5.644531 C 7.492188 5.675781 7.746094 5.730469 8.011719 5.789062 L 8.011719 5.300781 C 8.011719 4.796875 7.90625 4.441406 7.699219 4.234375 C 7.488281 4.027344 7.125 3.925781 6.613281 3.925781 C 6.378906 3.925781 6.136719 3.953125 5.890625 4.015625 C 5.644531 4.074219 5.402344 4.148438 5.171875 4.242188 C 5.0625 4.289062 4.984375 4.316406 4.9375 4.328125 C 4.890625 4.339844 4.855469 4.347656 4.832031 4.347656 C 4.738281 4.347656 4.691406 4.28125 4.691406 4.140625 L 4.691406 3.8125 C 4.691406 3.707031 4.703125 3.628906 4.738281 3.582031 C 4.769531 3.535156 4.832031 3.488281 4.921875 3.441406 C 5.15625 3.320312 5.4375 3.21875 5.765625 3.140625 C 6.089844 3.054688 6.4375 3.011719 6.804688 3.011719 C 7.601562 3.011719 8.179688 3.195312 8.554688 3.554688 C 8.921875 3.914062 9.109375 4.460938 9.109375 5.195312 L 9.109375 7.359375 Z M 6.410156 8.371094 C 6.632812 8.371094 6.859375 8.332031 7.097656 8.253906 C 7.339844 8.171875 7.554688 8.027344 7.734375 7.824219 C 7.839844 7.699219 7.921875 7.558594 7.960938 7.398438 C 8 7.238281 8.027344 7.042969 8.027344 6.816406 L 8.027344 6.539062 C 7.832031 6.492188 7.625 6.449219 7.414062 6.421875 C 7.199219 6.398438 6.992188 6.382812 6.785156 6.382812 C 6.339844 6.382812 6.011719 6.46875 5.792969 6.652344 C 5.570312 6.832031 5.464844 7.085938 5.464844 7.417969 C 5.464844 7.730469 5.542969 7.964844 5.710938 8.125 C 5.871094 8.292969 6.105469 8.371094 6.410156 8.371094 Z M 11.769531 9.09375 C 11.652344 9.09375 11.570312 9.074219 11.515625 9.027344 C 11.464844 8.988281 11.417969 8.894531 11.378906 8.765625 L 9.808594 3.605469 C 9.769531 3.472656 9.75 3.386719 9.75 3.339844 C 9.75 3.234375 9.800781 3.171875 9.910156 3.171875 L 10.5625 3.171875 C 10.691406 3.171875 10.777344 3.195312 10.824219 3.242188 C 10.875 3.28125 10.917969 3.375 10.957031 3.5 L 12.078125 7.917969 L 13.121094 3.5 C 13.152344 3.367188 13.191406 3.28125 13.246094 3.242188 C 13.300781 3.199219 13.394531 3.171875 13.511719 3.171875 L 14.046875 3.171875 C 14.175781 3.171875 14.261719 3.195312 14.3125 3.242188 C 14.367188 3.28125 14.414062 3.375 14.441406 3.5 L 15.496094 7.972656 L 16.648438 3.5 C 16.691406 3.367188 16.738281 3.28125 16.785156 3.242188 C 16.835938 3.199219 16.921875 3.171875 17.042969 3.171875 L 17.664062 3.171875 C 17.769531 3.171875 17.832031 3.226562 17.832031 3.339844 C 17.832031 3.375 17.824219 3.40625 17.816406 3.445312 C 17.8125 3.488281 17.796875 3.539062 17.769531 3.613281 L 16.164062 8.773438 C 16.121094 8.90625 16.074219 8.992188 16.023438 9.035156 C 15.96875 9.074219 15.882812 9.101562 15.769531 9.101562 L 15.195312 9.101562 C 15.066406 9.101562 14.980469 9.082031 14.929688 9.035156 C 14.875 8.988281 14.828125 8.898438 14.800781 8.765625 L 13.765625 4.460938 L 12.738281 8.757812 C 12.707031 8.894531 12.664062 8.980469 12.613281 9.027344 C 12.558594 9.074219 12.464844 9.09375 12.34375 9.09375 Z M 20.347656 9.273438 C 20 9.273438 19.652344 9.234375 19.320312 9.152344 C 18.984375 9.074219 18.726562 8.988281 18.550781 8.886719 C 18.445312 8.828125 18.371094 8.757812 18.34375 8.699219 C 18.320312 8.640625 18.304688 8.574219 18.304688 8.511719 L 18.304688 8.171875 C 18.304688 8.03125 18.359375 7.964844 18.457031 7.964844 C 18.5 7.964844 18.539062 7.972656 18.578125 7.984375 C 18.617188 8 18.679688 8.027344 18.746094 8.050781 C 18.972656 8.152344 19.21875 8.234375 19.480469 8.285156 C 19.746094 8.339844 20.007812 8.367188 20.273438 8.367188 C 20.695312 8.367188 21.019531 8.292969 21.25 8.144531 C 21.476562 8 21.59375 7.785156 21.59375 7.511719 C 21.59375 7.324219 21.535156 7.171875 21.414062 7.042969 C 21.296875 6.917969 21.066406 6.804688 20.742188 6.699219 L 19.773438 6.398438 C 19.285156 6.242188 18.925781 6.015625 18.707031 5.714844 C 18.484375 5.421875 18.371094 5.09375 18.371094 4.75 C 18.371094 4.46875 18.433594 4.222656 18.550781 4.007812 C 18.671875 3.792969 18.832031 3.605469 19.03125 3.460938 C 19.234375 3.308594 19.460938 3.195312 19.726562 3.113281 C 19.992188 3.035156 20.273438 3 20.566406 3 C 20.714844 3 20.867188 3.007812 21.015625 3.027344 C 21.167969 3.046875 21.308594 3.074219 21.449219 3.101562 C 21.582031 3.132812 21.707031 3.167969 21.828125 3.207031 C 21.949219 3.246094 22.042969 3.285156 22.109375 3.328125 C 22.203125 3.378906 22.269531 3.433594 22.308594 3.492188 C 22.347656 3.546875 22.371094 3.621094 22.371094 3.714844 L 22.371094 4.027344 C 22.371094 4.167969 22.316406 4.242188 22.214844 4.242188 C 22.164062 4.242188 22.074219 4.214844 21.960938 4.160156 C 21.582031 3.988281 21.15625 3.902344 20.679688 3.902344 C 20.300781 3.902344 20 3.960938 19.792969 4.085938 C 19.585938 4.214844 19.480469 4.410156 19.480469 4.683594 C 19.480469 4.867188 19.546875 5.027344 19.679688 5.15625 C 19.8125 5.28125 20.058594 5.410156 20.414062 5.523438 L 21.363281 5.824219 C 21.84375 5.976562 22.1875 6.191406 22.394531 6.464844 C 22.601562 6.738281 22.703125 7.050781 22.703125 7.398438 C 22.703125 7.683594 22.644531 7.945312 22.53125 8.171875 C 22.410156 8.398438 22.25 8.597656 22.042969 8.757812 C 21.835938 8.925781 21.589844 9.046875 21.300781 9.132812 C 21 9.226562 20.6875 9.273438 20.347656 9.273438 Z M 20.347656 9.273438 "/>
<path style=" stroke:none;fill-rule:evenodd;fill:rgb(100%,60%,0%);fill-opacity:1;" d="M 21.609375 12.515625 C 19.414062 14.140625 16.222656 15 13.480469 15 C 9.636719 15 6.171875 13.578125 3.554688 11.214844 C 3.347656 11.027344 3.535156 10.773438 3.78125 10.921875 C 6.613281 12.5625 10.101562 13.558594 13.714844 13.558594 C 16.148438 13.558594 18.824219 13.050781 21.289062 12.011719 C 21.65625 11.84375 21.96875 12.25 21.609375 12.515625 Z M 21.609375 12.515625 "/>
<path style=" stroke:none;fill-rule:evenodd;fill:rgb(100%,60%,0%);fill-opacity:1;" d="M 22.523438 11.476562 C 22.242188 11.117188 20.667969 11.300781 19.953125 11.390625 C 19.738281 11.417969 19.707031 11.230469 19.898438 11.089844 C 21.15625 10.207031 23.21875 10.460938 23.457031 10.753906 C 23.699219 11.054688 23.390625 13.117188 22.214844 14.105469 C 22.035156 14.257812 21.863281 14.179688 21.941406 13.980469 C 22.210938 13.316406 22.804688 11.828125 22.523438 11.476562 Z M 22.523438 11.476562 "/>
</g>
</svg>
