<?xml version="1.0" encoding="UTF-8"?>
<svg xmlns="http://www.w3.org/2000/svg" xmlns:xlink="http://www.w3.org/1999/xlink" width="18pt" height="17pt" viewBox="0 0 18 17" version="1.1">
<g id="surface1">
<path style=" stroke:none;fill-rule:nonzero;fill:rgb(8.627451%,8.627451%,7.843137%);fill-opacity:1;" d="M 9 0 C 4.03125 0 0 3.898438 0 8.703125 C 0 12.550781 2.578125 15.8125 6.15625 16.964844 C 6.605469 17.042969 6.769531 16.773438 6.769531 16.542969 C 6.769531 16.335938 6.761719 15.652344 6.757812 14.925781 C 4.253906 15.449219 3.726562 13.898438 3.726562 13.898438 C 3.316406 12.890625 2.726562 12.625 2.726562 12.625 C 1.910156 12.082031 2.789062 12.09375 2.789062 12.09375 C 3.691406 12.15625 4.167969 12.992188 4.167969 12.992188 C 4.96875 14.320312 6.273438 13.9375 6.785156 13.714844 C 6.867188 13.152344 7.101562 12.769531 7.359375 12.550781 C 5.359375 12.332031 3.257812 11.585938 3.257812 8.25 C 3.257812 7.300781 3.609375 6.523438 4.183594 5.914062 C 4.089844 5.695312 3.78125 4.808594 4.273438 3.609375 C 4.273438 3.609375 5.027344 3.375 6.746094 4.5 C 7.464844 4.308594 8.234375 4.210938 9 4.210938 C 9.765625 4.210938 10.535156 4.308594 11.253906 4.5 C 12.972656 3.375 13.726562 3.609375 13.726562 3.609375 C 14.21875 4.808594 13.910156 5.695312 13.816406 5.914062 C 14.390625 6.523438 14.742188 7.300781 14.742188 8.25 C 14.742188 11.59375 12.636719 12.328125 10.632812 12.542969 C 10.953125 12.8125 11.242188 13.34375 11.242188 14.15625 C 11.242188 15.320312 11.230469 16.257812 11.230469 16.542969 C 11.230469 16.777344 11.394531 17.046875 11.851562 16.960938 C 15.425781 15.808594 18 12.546875 18 8.703125 C 18 3.898438 13.96875 0 9 0 Z M 3.371094 12.398438 C 3.351562 12.441406 3.28125 12.457031 3.214844 12.425781 C 3.152344 12.398438 3.113281 12.339844 3.136719 12.296875 C 3.15625 12.25 3.226562 12.238281 3.289062 12.269531 C 3.355469 12.296875 3.394531 12.355469 3.371094 12.398438 Z M 3.8125 12.78125 C 3.769531 12.820312 3.6875 12.800781 3.628906 12.742188 C 3.570312 12.679688 3.558594 12.597656 3.601562 12.558594 C 3.648438 12.523438 3.730469 12.539062 3.789062 12.601562 C 3.847656 12.660156 3.859375 12.742188 3.8125 12.78125 Z M 4.117188 13.269531 C 4.0625 13.308594 3.972656 13.273438 3.917969 13.195312 C 3.859375 13.117188 3.859375 13.023438 3.917969 12.988281 C 3.972656 12.949219 4.0625 12.984375 4.117188 13.058594 C 4.171875 13.140625 4.171875 13.230469 4.117188 13.269531 Z M 4.632812 13.835938 C 4.582031 13.886719 4.476562 13.875 4.398438 13.804688 C 4.320312 13.734375 4.300781 13.632812 4.347656 13.582031 C 4.398438 13.527344 4.503906 13.542969 4.582031 13.613281 C 4.660156 13.683594 4.683594 13.785156 4.632812 13.835938 Z M 5.292969 14.027344 C 5.273438 14.09375 5.171875 14.125 5.070312 14.097656 C 4.96875 14.066406 4.902344 13.988281 4.921875 13.917969 C 4.941406 13.851562 5.042969 13.816406 5.148438 13.847656 C 5.25 13.878906 5.316406 13.957031 5.292969 14.027344 Z M 6.050781 14.109375 C 6.050781 14.179688 5.964844 14.238281 5.859375 14.242188 C 5.75 14.242188 5.664062 14.183594 5.664062 14.113281 C 5.664062 14.042969 5.746094 13.984375 5.855469 13.980469 C 5.960938 13.980469 6.050781 14.035156 6.050781 14.109375 Z M 6.792969 14.082031 C 6.804688 14.152344 6.730469 14.222656 6.625 14.242188 C 6.519531 14.261719 6.421875 14.21875 6.410156 14.148438 C 6.398438 14.074219 6.472656 14.003906 6.578125 13.984375 C 6.683594 13.96875 6.777344 14.007812 6.792969 14.082031 Z M 6.792969 14.082031 "/>
</g>
</svg>
