<?xml version="1.0" encoding="UTF-8"?>
<svg xmlns="http://www.w3.org/2000/svg" xmlns:xlink="http://www.w3.org/1999/xlink" width="16pt" height="18pt" viewBox="0 0 16 18" version="1.1">
<g id="surface1">
<path style=" stroke:none;fill-rule:evenodd;fill:rgb(89.803922%,20.784314%,67.058824%);fill-opacity:1;" d="M 9.535156 2.0625 L 13.234375 4.195312 C 13.339844 4.082031 13.460938 3.984375 13.597656 3.90625 C 14.363281 3.464844 15.339844 3.726562 15.785156 4.496094 C 16.226562 5.261719 15.964844 6.238281 15.199219 6.683594 C 15.066406 6.761719 14.921875 6.820312 14.773438 6.855469 L 14.773438 11.125 C 14.917969 11.160156 15.0625 11.21875 15.195312 11.292969 C 15.964844 11.738281 16.226562 12.714844 15.78125 13.484375 C 15.339844 14.25 14.359375 14.511719 13.589844 14.070312 C 13.441406 13.984375 13.308594 13.875 13.195312 13.75 L 9.519531 15.871094 C 9.574219 16.03125 9.601562 16.203125 9.601562 16.375 C 9.601562 17.257812 8.886719 17.976562 8 17.976562 C 7.113281 17.976562 6.398438 17.261719 6.398438 16.375 C 6.398438 16.21875 6.421875 16.066406 6.460938 15.921875 L 2.765625 13.789062 C 2.660156 13.898438 2.539062 13.992188 2.410156 14.070312 C 1.636719 14.511719 0.660156 14.25 0.21875 13.484375 C -0.222656 12.714844 0.0390625 11.738281 0.804688 11.292969 C 0.9375 11.21875 1.082031 11.160156 1.226562 11.125 L 1.226562 6.855469 C 1.078125 6.820312 0.933594 6.761719 0.800781 6.683594 C 0.0351562 6.242188 -0.226562 5.261719 0.214844 4.496094 C 0.65625 3.726562 1.636719 3.464844 2.402344 3.90625 C 2.539062 3.984375 2.660156 4.082031 2.765625 4.191406 L 6.464844 2.058594 C 6.417969 1.910156 6.398438 1.757812 6.398438 1.601562 C 6.398438 0.71875 7.113281 0 8 0 C 8.886719 0 9.601562 0.71875 9.601562 1.601562 C 9.601562 1.761719 9.578125 1.914062 9.535156 2.0625 Z M 9.152344 2.71875 L 12.855469 4.859375 C 12.738281 5.273438 12.792969 5.722656 13.007812 6.097656 C 13.234375 6.488281 13.601562 6.75 14.007812 6.851562 L 14.007812 11.125 C 13.988281 11.132812 13.96875 11.136719 13.949219 11.140625 L 9.109375 2.761719 C 9.121094 2.746094 9.136719 2.734375 9.152344 2.71875 Z M 6.894531 2.761719 L 2.054688 11.144531 C 2.03125 11.136719 2.011719 11.132812 1.992188 11.125 L 1.992188 6.851562 C 2.398438 6.75 2.765625 6.488281 2.992188 6.097656 C 3.207031 5.722656 3.261719 5.273438 3.144531 4.855469 L 6.847656 2.714844 C 6.863281 2.730469 6.878906 2.746094 6.894531 2.761719 Z M 8.449219 3.140625 L 13.285156 11.519531 C 13.175781 11.625 13.082031 11.746094 13.003906 11.878906 C 12.929688 12.011719 12.871094 12.15625 12.835938 12.304688 L 3.164062 12.304688 C 3.128906 12.15625 3.070312 12.011719 2.996094 11.878906 C 2.917969 11.75 2.824219 11.628906 2.714844 11.523438 L 7.554688 3.140625 C 7.699219 3.183594 7.847656 3.207031 8 3.203125 C 8.15625 3.203125 8.304688 3.183594 8.449219 3.140625 Z M 9.183594 15.296875 L 12.867188 13.171875 C 12.855469 13.136719 12.84375 13.101562 12.835938 13.066406 L 3.164062 13.066406 C 3.15625 13.085938 3.152344 13.105469 3.144531 13.128906 L 6.84375 15.261719 C 7.148438 14.949219 7.566406 14.773438 8 14.773438 C 8.449219 14.773438 8.882812 14.960938 9.183594 15.296875 Z M 9.183594 15.296875 "/>
</g>
</svg>
