<?xml version="1.0" encoding="UTF-8"?>
<svg xmlns="http://www.w3.org/2000/svg" xmlns:xlink="http://www.w3.org/1999/xlink" width="36pt" height="18pt" viewBox="0 0 36 18" version="1.1">
<g id="surface1">
<path style=" stroke:none;fill-rule:nonzero;fill:rgb(88.235294%,0%,59.607843%);fill-opacity:1;" d="M 14.214844 6.777344 C 14.046875 6.777344 13.890625 6.800781 13.75 6.847656 C 13.613281 6.886719 13.492188 6.957031 13.390625 7.058594 C 13.289062 7.152344 13.210938 7.277344 13.148438 7.425781 C 13.09375 7.578125 13.0625 7.761719 13.054688 7.972656 C 13.042969 8.3125 13.042969 8.65625 13.054688 8.996094 C 13.0625 9.210938 13.09375 9.390625 13.148438 9.542969 C 13.210938 9.695312 13.289062 9.820312 13.390625 9.917969 C 13.492188 10.011719 13.613281 10.082031 13.75 10.128906 C 13.890625 10.171875 14.046875 10.191406 14.214844 10.191406 C 14.382812 10.191406 14.539062 10.167969 14.683594 10.125 C 14.828125 10.074219 14.949219 10.003906 15.054688 9.90625 C 15.160156 9.808594 15.246094 9.683594 15.304688 9.53125 C 15.367188 9.378906 15.394531 9.203125 15.394531 8.996094 L 15.394531 8.707031 L 14.402344 8.707031 C 14.320312 8.707031 14.277344 8.664062 14.277344 8.578125 L 14.277344 8.496094 C 14.277344 8.410156 14.320312 8.371094 14.402344 8.371094 L 15.621094 8.371094 C 15.707031 8.371094 15.75 8.410156 15.75 8.496094 L 15.75 9 C 15.75 9.226562 15.714844 9.4375 15.648438 9.625 C 15.578125 9.8125 15.480469 9.972656 15.347656 10.109375 C 15.21875 10.246094 15.054688 10.355469 14.859375 10.429688 C 14.667969 10.503906 14.453125 10.539062 14.210938 10.539062 C 13.964844 10.539062 13.746094 10.503906 13.5625 10.429688 C 13.375 10.355469 13.21875 10.25 13.089844 10.117188 C 12.964844 9.984375 12.867188 9.824219 12.796875 9.644531 C 12.734375 9.457031 12.699219 9.253906 12.691406 9.027344 C 12.683594 8.855469 12.679688 8.675781 12.679688 8.488281 C 12.679688 8.292969 12.683594 8.113281 12.691406 7.945312 C 12.699219 7.722656 12.734375 7.519531 12.804688 7.335938 C 12.871094 7.148438 12.96875 6.988281 13.09375 6.855469 C 13.222656 6.722656 13.382812 6.621094 13.566406 6.546875 C 13.753906 6.472656 13.96875 6.433594 14.210938 6.433594 C 14.472656 6.433594 14.699219 6.472656 14.882812 6.554688 C 15.070312 6.632812 15.222656 6.730469 15.339844 6.84375 C 15.457031 6.953125 15.546875 7.070312 15.601562 7.191406 C 15.660156 7.3125 15.691406 7.414062 15.695312 7.492188 C 15.699219 7.527344 15.6875 7.554688 15.664062 7.578125 C 15.640625 7.597656 15.613281 7.605469 15.574219 7.605469 L 15.449219 7.605469 C 15.414062 7.605469 15.390625 7.597656 15.375 7.585938 C 15.359375 7.566406 15.34375 7.535156 15.328125 7.492188 C 15.296875 7.40625 15.253906 7.320312 15.199219 7.238281 C 15.148438 7.152344 15.074219 7.074219 14.984375 7.007812 C 14.894531 6.941406 14.785156 6.886719 14.660156 6.84375 C 14.535156 6.800781 14.386719 6.78125 14.214844 6.78125 Z M 16.90625 7.910156 C 17.042969 7.648438 17.300781 7.519531 17.679688 7.519531 L 17.894531 7.519531 C 17.976562 7.519531 18.019531 7.558594 18.019531 7.644531 L 18.019531 7.722656 C 18.019531 7.808594 17.976562 7.847656 17.894531 7.847656 L 17.648438 7.847656 C 17.417969 7.847656 17.238281 7.914062 17.105469 8.046875 C 16.972656 8.179688 16.90625 8.363281 16.90625 8.589844 L 16.90625 10.355469 C 16.90625 10.394531 16.894531 10.425781 16.867188 10.445312 C 16.84375 10.46875 16.8125 10.480469 16.777344 10.480469 L 16.683594 10.480469 C 16.601562 10.480469 16.558594 10.441406 16.558594 10.355469 L 16.558594 7.648438 C 16.558594 7.609375 16.570312 7.582031 16.59375 7.558594 C 16.617188 7.53125 16.644531 7.515625 16.683594 7.515625 L 16.777344 7.515625 C 16.8125 7.515625 16.84375 7.53125 16.867188 7.558594 C 16.894531 7.582031 16.90625 7.609375 16.90625 7.648438 Z M 20.425781 10.484375 C 20.34375 10.484375 20.300781 10.441406 20.300781 10.359375 L 20.300781 10.089844 C 20.265625 10.144531 20.222656 10.195312 20.164062 10.25 C 20.109375 10.304688 20.042969 10.351562 19.964844 10.390625 C 19.886719 10.433594 19.789062 10.46875 19.675781 10.496094 C 19.566406 10.523438 19.4375 10.539062 19.289062 10.539062 C 19.152344 10.539062 19.023438 10.519531 18.894531 10.476562 C 18.773438 10.433594 18.667969 10.371094 18.570312 10.292969 C 18.480469 10.21875 18.40625 10.128906 18.347656 10.027344 C 18.296875 9.925781 18.269531 9.8125 18.269531 9.691406 C 18.269531 9.5625 18.296875 9.445312 18.347656 9.34375 C 18.40625 9.242188 18.484375 9.152344 18.582031 9.074219 C 18.683594 8.996094 18.800781 8.929688 18.9375 8.882812 C 19.078125 8.828125 19.230469 8.789062 19.398438 8.769531 L 20.296875 8.640625 L 20.296875 8.441406 C 20.296875 8.238281 20.234375 8.078125 20.109375 7.964844 C 19.988281 7.851562 19.792969 7.792969 19.523438 7.792969 C 19.3125 7.792969 19.144531 7.835938 19.027344 7.917969 C 18.914062 8 18.839844 8.085938 18.8125 8.179688 C 18.796875 8.226562 18.777344 8.257812 18.753906 8.277344 C 18.734375 8.292969 18.710938 8.300781 18.675781 8.300781 L 18.59375 8.300781 C 18.5625 8.300781 18.53125 8.289062 18.503906 8.265625 C 18.480469 8.238281 18.46875 8.210938 18.46875 8.175781 C 18.46875 8.121094 18.488281 8.054688 18.527344 7.976562 C 18.5625 7.894531 18.625 7.816406 18.707031 7.742188 C 18.792969 7.667969 18.90625 7.601562 19.039062 7.546875 C 19.171875 7.492188 19.335938 7.464844 19.523438 7.464844 C 19.75 7.464844 19.933594 7.492188 20.078125 7.554688 C 20.226562 7.613281 20.339844 7.695312 20.425781 7.792969 C 20.507812 7.890625 20.566406 7.996094 20.597656 8.113281 C 20.628906 8.230469 20.648438 8.347656 20.648438 8.460938 L 20.648438 10.359375 C 20.648438 10.441406 20.605469 10.484375 20.523438 10.484375 Z M 19.347656 10.210938 C 19.480469 10.210938 19.601562 10.1875 19.714844 10.148438 C 19.832031 10.101562 19.933594 10.035156 20.023438 9.949219 C 20.109375 9.863281 20.175781 9.75 20.226562 9.617188 C 20.277344 9.484375 20.300781 9.328125 20.300781 9.148438 L 20.300781 8.957031 L 19.566406 9.058594 C 18.933594 9.144531 18.621094 9.34375 18.621094 9.664062 C 18.621094 9.757812 18.640625 9.839844 18.683594 9.90625 C 18.726562 9.976562 18.785156 10.03125 18.855469 10.078125 C 18.921875 10.125 19 10.15625 19.085938 10.179688 C 19.171875 10.199219 19.261719 10.210938 19.351562 10.210938 Z M 22.855469 10.539062 C 22.617188 10.539062 22.421875 10.496094 22.269531 10.410156 C 22.117188 10.328125 21.992188 10.21875 21.898438 10.09375 L 21.898438 11.445312 C 21.898438 11.527344 21.855469 11.570312 21.773438 11.570312 L 21.675781 11.570312 C 21.59375 11.570312 21.550781 11.527344 21.550781 11.445312 L 21.550781 7.644531 C 21.550781 7.558594 21.59375 7.519531 21.675781 7.519531 L 21.773438 7.519531 C 21.855469 7.519531 21.898438 7.558594 21.898438 7.644531 L 21.898438 7.910156 C 21.992188 7.78125 22.117188 7.675781 22.269531 7.59375 C 22.421875 7.507812 22.617188 7.464844 22.855469 7.464844 C 23.074219 7.464844 23.261719 7.503906 23.414062 7.582031 C 23.570312 7.660156 23.695312 7.761719 23.789062 7.890625 C 23.886719 8.015625 23.953125 8.160156 23.996094 8.324219 C 24.039062 8.484375 24.066406 8.648438 24.074219 8.816406 C 24.078125 8.871094 24.082031 8.933594 24.082031 9.003906 C 24.082031 9.070312 24.078125 9.132812 24.074219 9.191406 C 24.066406 9.359375 24.039062 9.523438 23.996094 9.6875 C 23.953125 9.847656 23.886719 9.992188 23.789062 10.121094 C 23.695312 10.246094 23.570312 10.347656 23.414062 10.429688 C 23.261719 10.503906 23.074219 10.542969 22.855469 10.542969 Z M 21.898438 8.796875 C 21.894531 8.851562 21.890625 8.925781 21.890625 9.019531 C 21.890625 9.109375 21.894531 9.183594 21.898438 9.238281 C 21.902344 9.355469 21.921875 9.46875 21.953125 9.589844 C 21.992188 9.703125 22.050781 9.804688 22.125 9.894531 C 22.203125 9.988281 22.296875 10.0625 22.414062 10.125 C 22.527344 10.179688 22.664062 10.210938 22.824219 10.210938 C 22.992188 10.210938 23.128906 10.179688 23.238281 10.125 C 23.355469 10.066406 23.445312 9.992188 23.515625 9.894531 C 23.585938 9.796875 23.636719 9.683594 23.667969 9.558594 C 23.703125 9.429688 23.722656 9.296875 23.730469 9.160156 C 23.734375 9.054688 23.734375 8.949219 23.730469 8.839844 C 23.722656 8.707031 23.703125 8.574219 23.667969 8.449219 C 23.636719 8.324219 23.585938 8.210938 23.515625 8.117188 C 23.445312 8.019531 23.355469 7.941406 23.238281 7.882812 C 23.128906 7.824219 22.992188 7.792969 22.824219 7.792969 C 22.660156 7.792969 22.523438 7.824219 22.40625 7.882812 C 22.292969 7.945312 22.199219 8.023438 22.121094 8.125 C 22.046875 8.21875 21.992188 8.324219 21.953125 8.441406 C 21.921875 8.558594 21.902344 8.679688 21.898438 8.796875 Z M 25.203125 7.910156 C 25.308594 7.777344 25.429688 7.671875 25.574219 7.585938 C 25.71875 7.503906 25.914062 7.460938 26.160156 7.460938 C 26.355469 7.460938 26.523438 7.492188 26.667969 7.558594 C 26.8125 7.621094 26.933594 7.710938 27.027344 7.824219 C 27.128906 7.941406 27.199219 8.074219 27.25 8.230469 C 27.300781 8.386719 27.324219 8.554688 27.324219 8.738281 L 27.324219 10.355469 C 27.324219 10.441406 27.28125 10.480469 27.199219 10.480469 L 27.101562 10.480469 C 27.019531 10.480469 26.976562 10.441406 26.976562 10.355469 L 26.976562 8.765625 C 26.976562 8.460938 26.902344 8.226562 26.753906 8.054688 C 26.609375 7.878906 26.390625 7.792969 26.105469 7.792969 C 25.832031 7.792969 25.613281 7.875 25.449219 8.046875 C 25.289062 8.21875 25.207031 8.457031 25.207031 8.765625 L 25.207031 10.355469 C 25.207031 10.441406 25.164062 10.484375 25.082031 10.484375 L 24.984375 10.484375 C 24.898438 10.484375 24.859375 10.441406 24.859375 10.355469 L 24.859375 6.558594 C 24.859375 6.476562 24.898438 6.433594 24.984375 6.433594 L 25.082031 6.433594 C 25.164062 6.433594 25.207031 6.476562 25.207031 6.558594 L 25.207031 7.910156 Z M 29.648438 6.4375 C 29.871094 6.4375 30.070312 6.46875 30.253906 6.53125 C 30.4375 6.597656 30.59375 6.695312 30.722656 6.828125 C 30.855469 6.957031 30.957031 7.121094 31.027344 7.320312 C 31.105469 7.511719 31.144531 7.742188 31.152344 8.007812 C 31.160156 8.179688 31.164062 8.339844 31.164062 8.488281 C 31.164062 8.636719 31.160156 8.796875 31.152344 8.964844 C 31.136719 9.507812 30.996094 9.910156 30.738281 10.164062 L 31.101562 10.675781 C 31.105469 10.683594 31.109375 10.691406 31.113281 10.699219 C 31.117188 10.707031 31.121094 10.71875 31.121094 10.738281 C 31.121094 10.769531 31.109375 10.796875 31.085938 10.820312 C 31.0625 10.839844 31.035156 10.851562 31.007812 10.851562 L 30.878906 10.851562 C 30.839844 10.851562 30.800781 10.835938 30.773438 10.800781 C 30.742188 10.769531 30.71875 10.746094 30.699219 10.722656 L 30.445312 10.375 C 30.21875 10.484375 29.953125 10.539062 29.648438 10.539062 C 29.171875 10.539062 28.808594 10.410156 28.546875 10.15625 C 28.292969 9.902344 28.160156 9.503906 28.144531 8.964844 C 28.136719 8.796875 28.132812 8.636719 28.132812 8.488281 C 28.132812 8.339844 28.136719 8.179688 28.144531 8.007812 C 28.152344 7.742188 28.191406 7.511719 28.261719 7.320312 C 28.339844 7.121094 28.441406 6.957031 28.570312 6.828125 C 28.703125 6.695312 28.859375 6.597656 29.039062 6.53125 C 29.222656 6.46875 29.425781 6.4375 29.648438 6.4375 Z M 29.648438 6.777344 C 29.488281 6.777344 29.339844 6.804688 29.203125 6.851562 C 29.066406 6.898438 28.949219 6.972656 28.84375 7.074219 C 28.742188 7.175781 28.660156 7.308594 28.601562 7.46875 C 28.542969 7.628906 28.511719 7.816406 28.503906 8.039062 C 28.5 8.121094 28.496094 8.203125 28.492188 8.277344 C 28.492188 8.347656 28.492188 8.417969 28.492188 8.488281 C 28.492188 8.554688 28.492188 8.628906 28.492188 8.703125 C 28.496094 8.777344 28.5 8.855469 28.503906 8.9375 C 28.511719 9.160156 28.542969 9.351562 28.601562 9.511719 C 28.660156 9.667969 28.742188 9.796875 28.839844 9.902344 C 28.941406 10.003906 29.0625 10.078125 29.199219 10.128906 C 29.335938 10.175781 29.484375 10.195312 29.648438 10.195312 C 29.8125 10.195312 29.960938 10.175781 30.097656 10.128906 C 30.234375 10.078125 30.351562 10.003906 30.449219 9.902344 C 30.554688 9.796875 30.632812 9.667969 30.691406 9.511719 C 30.75 9.355469 30.785156 9.160156 30.792969 8.9375 C 30.796875 8.855469 30.796875 8.777344 30.796875 8.703125 C 30.796875 8.628906 30.796875 8.554688 30.796875 8.488281 C 30.796875 8.417969 30.796875 8.347656 30.796875 8.277344 C 30.796875 8.203125 30.796875 8.125 30.792969 8.039062 C 30.785156 7.816406 30.75 7.628906 30.691406 7.46875 C 30.632812 7.308594 30.554688 7.175781 30.449219 7.074219 C 30.347656 6.972656 30.230469 6.898438 30.089844 6.851562 C 29.957031 6.804688 29.808594 6.777344 29.648438 6.777344 Z M 32.429688 10.140625 L 34.398438 10.140625 C 34.484375 10.140625 34.527344 10.183594 34.527344 10.269531 L 34.527344 10.351562 C 34.527344 10.4375 34.484375 10.480469 34.398438 10.480469 L 32.199219 10.480469 C 32.113281 10.480469 32.070312 10.4375 32.070312 10.351562 L 32.070312 6.617188 C 32.070312 6.535156 32.113281 6.492188 32.199219 6.492188 L 32.304688 6.492188 C 32.390625 6.492188 32.429688 6.535156 32.429688 6.617188 Z M 2.320312 11.746094 L 1.933594 11.523438 L 6.214844 4.109375 L 6.601562 4.328125 Z M 2.320312 11.746094 "/>
<path style=" stroke:none;fill-rule:nonzero;fill:rgb(88.235294%,0%,59.607843%);fill-opacity:1;" d="M 1.847656 10.929688 L 10.410156 10.929688 L 10.410156 11.375 L 1.847656 11.375 Z M 1.847656 10.929688 "/>
<path style=" stroke:none;fill-rule:nonzero;fill:rgb(88.235294%,0%,59.607843%);fill-opacity:1;" d="M 6.300781 13.652344 L 2.015625 11.179688 L 2.238281 10.796875 L 6.523438 13.265625 Z M 10.019531 7.207031 L 5.738281 4.734375 L 5.960938 4.351562 L 10.242188 6.824219 Z M 10.019531 7.207031 "/>
<path style=" stroke:none;fill-rule:nonzero;fill:rgb(88.235294%,0%,59.607843%);fill-opacity:1;" d="M 2.238281 7.207031 L 2.019531 6.820312 L 6.304688 4.351562 L 6.527344 4.734375 Z M 2.238281 7.207031 "/>
<path style=" stroke:none;fill-rule:nonzero;fill:rgb(88.235294%,0%,59.607843%);fill-opacity:1;" d="M 9.941406 11.746094 L 5.660156 4.328125 L 6.042969 4.109375 L 10.324219 11.523438 Z M 2.1875 6.527344 L 2.628906 6.527344 L 2.628906 11.472656 L 2.1875 11.472656 Z M 9.628906 6.527344 L 10.074219 6.527344 L 10.074219 11.472656 L 9.628906 11.472656 Z M 9.628906 6.527344 "/>
<path style=" stroke:none;fill-rule:nonzero;fill:rgb(88.235294%,0%,59.607843%);fill-opacity:1;" d="M 6.222656 13.464844 L 6.03125 13.128906 L 9.753906 10.976562 L 9.949219 11.3125 Z M 6.222656 13.464844 "/>
<path style=" stroke:none;fill-rule:nonzero;fill:rgb(88.235294%,0%,59.607843%);fill-opacity:1;" d="M 10.660156 11.617188 C 10.402344 12.0625 9.832031 12.214844 9.386719 11.960938 C 8.941406 11.703125 8.785156 11.128906 9.042969 10.683594 C 9.300781 10.238281 9.871094 10.085938 10.320312 10.34375 C 10.769531 10.597656 10.921875 11.175781 10.660156 11.617188 M 3.214844 7.316406 C 2.957031 7.761719 2.386719 7.914062 1.9375 7.660156 C 1.492188 7.402344 1.339844 6.828125 1.597656 6.382812 C 1.855469 5.9375 2.425781 5.785156 2.871094 6.042969 C 3.320312 6.296875 3.46875 6.875 3.214844 7.316406 M 1.601562 11.617188 C 1.34375 11.171875 1.496094 10.601562 1.941406 10.34375 C 2.386719 10.085938 2.957031 10.238281 3.21875 10.683594 C 3.472656 11.128906 3.320312 11.699219 2.875 11.960938 C 2.425781 12.214844 1.855469 12.0625 1.601562 11.617188 M 9.046875 7.316406 C 8.789062 6.871094 8.941406 6.300781 9.390625 6.042969 C 9.835938 5.785156 10.40625 5.9375 10.664062 6.382812 C 10.921875 6.828125 10.769531 7.398438 10.324219 7.660156 C 9.875 7.914062 9.304688 7.761719 9.046875 7.316406 M 6.128906 14.234375 C 5.613281 14.234375 5.195312 13.816406 5.195312 13.300781 C 5.195312 12.785156 5.613281 12.371094 6.128906 12.371094 C 6.644531 12.371094 7.0625 12.785156 7.0625 13.300781 C 7.0625 13.816406 6.644531 14.234375 6.128906 14.234375 M 6.128906 5.632812 C 5.613281 5.632812 5.195312 5.214844 5.195312 4.699219 C 5.195312 4.183594 5.613281 3.765625 6.128906 3.765625 C 6.644531 3.765625 7.0625 4.183594 7.0625 4.699219 C 7.0625 4.949219 6.964844 5.183594 6.789062 5.359375 C 6.613281 5.535156 6.378906 5.632812 6.128906 5.632812 "/>
</g>
</svg>
