<?xml version="1.0" encoding="UTF-8"?>
<svg xmlns="http://www.w3.org/2000/svg" xmlns:xlink="http://www.w3.org/1999/xlink" width="36pt" height="18pt" viewBox="0 0 36 18" version="1.1">
<g id="surface1">
<path style=" stroke:none;fill-rule:nonzero;fill:rgb(34.901961%,58.823529%,21.176471%);fill-opacity:1;" d="M 4.84375 1.546875 L 5.171875 2.160156 C 5.242188 2.273438 5.324219 2.375 5.417969 2.46875 C 5.691406 2.742188 5.953125 3.03125 6.1875 3.335938 C 6.742188 4.066406 7.113281 4.875 7.382812 5.75 C 7.542969 6.285156 7.628906 6.832031 7.636719 7.386719 C 7.664062 9.042969 7.09375 10.464844 5.945312 11.648438 C 5.757812 11.835938 5.558594 12.007812 5.34375 12.164062 C 5.230469 12.164062 5.175781 12.074219 5.128906 11.996094 C 5.039062 11.84375 4.988281 11.679688 4.964844 11.515625 C 4.921875 11.3125 4.898438 11.113281 4.910156 10.90625 L 4.910156 10.8125 C 4.902344 10.792969 4.804688 1.59375 4.84375 1.546875 Z M 4.84375 1.546875 "/>
<path style=" stroke:none;fill-rule:nonzero;fill:rgb(42.352941%,67.45098%,28.235294%);fill-opacity:1;" d="M 4.84375 1.527344 C 4.832031 1.5 4.816406 1.519531 4.804688 1.53125 C 4.808594 1.667969 4.765625 1.785156 4.691406 1.902344 C 4.609375 2.015625 4.503906 2.101562 4.394531 2.195312 C 3.800781 2.710938 3.332031 3.332031 2.960938 4.023438 C 2.464844 4.960938 2.203125 5.960938 2.132812 7.019531 C 2.097656 7.398438 2.25 8.742188 2.371094 9.128906 C 2.699219 10.160156 3.285156 11.019531 4.050781 11.769531 C 4.238281 11.949219 4.441406 12.117188 4.648438 12.277344 C 4.707031 12.277344 4.714844 12.222656 4.726562 12.183594 C 4.753906 12.097656 4.773438 12.007812 4.785156 11.921875 C 4.847656 11.585938 4.878906 11.253906 4.921875 10.917969 L 4.847656 1.527344 Z M 4.84375 1.527344 "/>
<path style=" stroke:none;fill-rule:nonzero;fill:rgb(76.078431%,74.901961%,74.901961%);fill-opacity:1;" d="M 5.171875 12.570312 C 5.183594 12.417969 5.261719 12.289062 5.339844 12.164062 C 5.257812 12.128906 5.199219 12.0625 5.152344 11.988281 C 5.113281 11.921875 5.078125 11.839844 5.050781 11.769531 C 4.957031 11.488281 4.9375 11.195312 4.910156 10.90625 L 4.910156 10.730469 C 4.878906 10.757812 4.871094 10.984375 4.871094 11.019531 C 4.851562 11.328125 4.8125 11.628906 4.75 11.921875 C 4.730469 12.042969 4.71875 12.160156 4.644531 12.269531 C 4.644531 12.28125 4.644531 12.296875 4.652344 12.316406 C 4.769531 12.667969 4.804688 13.03125 4.824219 13.398438 L 4.824219 13.53125 C 4.824219 13.691406 4.816406 13.660156 4.953125 13.710938 C 5.003906 13.730469 5.066406 13.738281 5.117188 13.777344 C 5.160156 13.777344 5.164062 13.746094 5.164062 13.71875 L 5.144531 13.496094 L 5.144531 12.882812 C 5.140625 12.777344 5.160156 12.667969 5.171875 12.570312 Z M 5.171875 12.570312 "/>
<path style=" stroke:none;fill-rule:nonzero;fill:rgb(27.843137%,27.843137%,29.019608%);fill-opacity:1;" d="M 10.246094 9.777344 L 10.246094 10.414062 C 10.246094 10.4375 10.246094 10.460938 10.25 10.488281 C 10.257812 10.5625 10.304688 10.609375 10.371094 10.628906 C 10.433594 10.648438 10.5 10.660156 10.566406 10.667969 C 10.601562 10.671875 10.617188 10.6875 10.621094 10.730469 C 10.625 10.871094 10.609375 10.886719 10.472656 10.878906 C 10.152344 10.863281 9.828125 10.859375 9.507812 10.878906 L 9.476562 10.878906 C 9.375 10.882812 9.367188 10.875 9.367188 10.773438 C 9.367188 10.757812 9.371094 10.738281 9.371094 10.71875 C 9.371094 10.691406 9.390625 10.675781 9.421875 10.675781 C 9.488281 10.667969 9.550781 10.648438 9.613281 10.636719 C 9.703125 10.617188 9.753906 10.5625 9.761719 10.472656 C 9.773438 10.378906 9.773438 10.277344 9.773438 10.179688 L 9.777344 9.058594 C 9.78125 8.992188 9.746094 8.929688 9.683594 8.898438 C 9.609375 8.855469 9.53125 8.824219 9.445312 8.796875 C 9.421875 8.789062 9.394531 8.785156 9.375 8.773438 C 9.3125 8.746094 9.3125 8.691406 9.371094 8.65625 C 9.390625 8.644531 9.417969 8.636719 9.441406 8.632812 C 9.695312 8.59375 9.945312 8.53125 10.1875 8.441406 C 10.238281 8.425781 10.25 8.429688 10.253906 8.480469 C 10.257812 8.511719 10.253906 8.546875 10.25 8.578125 C 10.242188 8.632812 10.242188 8.683594 10.242188 8.734375 C 10.242188 8.757812 10.246094 8.777344 10.265625 8.789062 C 10.289062 8.804688 10.308594 8.789062 10.328125 8.777344 C 10.417969 8.710938 10.503906 8.648438 10.601562 8.59375 C 10.738281 8.519531 10.886719 8.453125 11.042969 8.429688 C 11.238281 8.40625 11.40625 8.457031 11.550781 8.582031 C 11.613281 8.636719 11.664062 8.699219 11.710938 8.765625 C 11.753906 8.828125 11.757812 8.828125 11.8125 8.785156 C 11.96875 8.667969 12.136719 8.566406 12.316406 8.488281 C 12.503906 8.410156 12.699219 8.398438 12.890625 8.464844 C 13.085938 8.535156 13.222656 8.671875 13.300781 8.863281 C 13.367188 9.011719 13.398438 9.167969 13.398438 9.332031 L 13.398438 10.453125 C 13.398438 10.527344 13.429688 10.574219 13.503906 10.613281 C 13.582031 10.640625 13.667969 10.65625 13.753906 10.675781 C 13.808594 10.6875 13.808594 10.6875 13.808594 10.742188 C 13.800781 10.878906 13.785156 10.886719 13.652344 10.878906 C 13.316406 10.859375 12.980469 10.859375 12.644531 10.878906 C 12.578125 10.882812 12.578125 10.882812 12.574219 10.816406 L 12.574219 10.796875 C 12.570312 10.683594 12.570312 10.683594 12.679688 10.660156 L 12.785156 10.628906 C 12.863281 10.609375 12.917969 10.542969 12.917969 10.464844 L 12.929688 10.152344 L 12.921875 9.332031 C 12.917969 9.257812 12.902344 9.1875 12.875 9.117188 C 12.769531 8.863281 12.539062 8.769531 12.316406 8.796875 C 12.148438 8.8125 12.003906 8.878906 11.867188 8.976562 C 11.835938 8.996094 11.816406 9.023438 11.820312 9.0625 C 11.855469 9.332031 11.832031 9.601562 11.835938 9.867188 L 11.835938 10.449219 C 11.835938 10.554688 11.878906 10.605469 11.980469 10.628906 L 12.171875 10.671875 C 12.203125 10.675781 12.21875 10.6875 12.21875 10.722656 L 12.21875 10.753906 C 12.214844 10.871094 12.207031 10.875 12.085938 10.875 C 11.753906 10.855469 11.417969 10.863281 11.085938 10.875 C 10.972656 10.878906 10.964844 10.867188 10.96875 10.75 C 10.972656 10.683594 10.980469 10.679688 11.046875 10.667969 L 11.183594 10.640625 C 11.304688 10.617188 11.351562 10.570312 11.359375 10.441406 L 11.371094 10.160156 L 11.363281 9.320312 C 11.355469 9.214844 11.332031 9.113281 11.273438 9.019531 C 11.191406 8.863281 11.0625 8.785156 10.882812 8.773438 C 10.703125 8.761719 10.542969 8.828125 10.390625 8.914062 C 10.285156 8.972656 10.242188 9.046875 10.25 9.167969 L 10.25 9.78125 Z M 18.132812 9.800781 L 18.132812 10.390625 C 18.132812 10.433594 18.136719 10.476562 18.140625 10.515625 C 18.144531 10.574219 18.183594 10.621094 18.242188 10.632812 C 18.3125 10.65625 18.386719 10.667969 18.464844 10.671875 C 18.503906 10.675781 18.511719 10.691406 18.515625 10.726562 L 18.515625 10.757812 C 18.511719 10.902344 18.496094 10.917969 18.355469 10.910156 C 18.035156 10.890625 17.71875 10.894531 17.398438 10.910156 L 17.277344 10.914062 C 17.253906 10.914062 17.246094 10.902344 17.238281 10.886719 C 17.226562 10.828125 17.226562 10.769531 17.238281 10.710938 C 17.242188 10.683594 17.261719 10.679688 17.285156 10.671875 C 17.347656 10.664062 17.398438 10.652344 17.457031 10.640625 C 17.5625 10.617188 17.597656 10.574219 17.601562 10.464844 L 17.617188 10.113281 L 17.617188 9.085938 C 17.617188 9.007812 17.585938 8.964844 17.519531 8.929688 C 17.445312 8.886719 17.363281 8.859375 17.28125 8.828125 C 17.253906 8.820312 17.230469 8.8125 17.210938 8.800781 C 17.15625 8.761719 17.148438 8.707031 17.203125 8.664062 C 17.226562 8.644531 17.253906 8.632812 17.285156 8.632812 C 17.554688 8.589844 17.8125 8.53125 18.0625 8.429688 C 18.09375 8.417969 18.105469 8.425781 18.117188 8.453125 C 18.128906 8.476562 18.136719 8.507812 18.128906 8.535156 L 18.117188 8.730469 C 18.117188 8.757812 18.105469 8.792969 18.125 8.804688 C 18.152344 8.820312 18.167969 8.78125 18.1875 8.773438 C 18.3125 8.667969 18.449219 8.582031 18.59375 8.511719 C 18.726562 8.453125 18.859375 8.414062 19.011719 8.421875 C 19.289062 8.4375 19.492188 8.582031 19.621094 8.828125 C 19.6875 8.957031 19.71875 9.097656 19.730469 9.246094 L 19.742188 9.550781 L 19.746094 10.476562 C 19.75 10.546875 19.777344 10.59375 19.847656 10.621094 C 19.921875 10.644531 19.996094 10.664062 20.074219 10.675781 C 20.140625 10.683594 20.144531 10.695312 20.148438 10.757812 L 20.148438 10.777344 C 20.140625 10.921875 20.132812 10.925781 19.988281 10.917969 C 19.675781 10.898438 19.363281 10.898438 19.050781 10.917969 C 19.007812 10.921875 18.96875 10.917969 18.929688 10.921875 C 18.902344 10.921875 18.886719 10.917969 18.882812 10.890625 C 18.875 10.835938 18.867188 10.78125 18.878906 10.722656 C 18.882812 10.699219 18.894531 10.6875 18.925781 10.683594 L 19.117188 10.652344 C 19.183594 10.636719 19.222656 10.589844 19.230469 10.527344 L 19.238281 10.410156 L 19.234375 9.535156 C 19.234375 9.4375 19.230469 9.335938 19.210938 9.234375 C 19.160156 9.019531 18.996094 8.867188 18.773438 8.847656 C 18.582031 8.824219 18.40625 8.875 18.246094 8.980469 C 18.167969 9.03125 18.132812 9.101562 18.132812 9.191406 L 18.132812 9.820312 C 18.132812 9.808594 18.132812 9.808594 18.136719 9.808594 Z M 18.132812 9.800781 "/>
<path style=" stroke:none;fill-rule:nonzero;fill:rgb(76.078431%,74.901961%,74.901961%);fill-opacity:1;" d="M 30.394531 8.617188 C 30.347656 8.3125 30.234375 8.039062 30.039062 7.800781 C 29.867188 7.589844 29.644531 7.425781 29.394531 7.324219 C 29.128906 7.214844 28.847656 7.179688 28.5625 7.171875 C 28.445312 7.167969 26.847656 7.191406 26.730469 7.171875 C 26.699219 7.167969 26.679688 7.175781 26.664062 7.203125 C 26.640625 7.230469 26.621094 7.265625 26.609375 7.296875 C 26.558594 7.410156 26.558594 7.402344 26.679688 7.417969 C 26.78125 7.4375 26.875 7.445312 26.972656 7.472656 C 27.0625 7.503906 27.125 7.554688 27.144531 7.648438 C 27.152344 7.695312 27.160156 9.167969 27.160156 9.855469 L 27.144531 10.34375 C 27.140625 10.382812 27.136719 10.421875 27.125 10.453125 C 27.105469 10.503906 27.078125 10.546875 27.027344 10.566406 C 26.972656 10.59375 26.914062 10.609375 26.851562 10.613281 C 26.738281 10.625 26.722656 10.628906 26.683594 10.757812 L 26.671875 10.800781 C 26.664062 10.855469 26.667969 10.863281 26.722656 10.863281 L 27.972656 10.878906 L 28.464844 10.867188 L 28.804688 10.828125 C 29.1875 10.757812 29.53125 10.597656 29.824219 10.339844 C 29.992188 10.195312 30.128906 10.015625 30.226562 9.8125 C 30.34375 9.578125 30.394531 9.324219 30.40625 9.066406 C 30.425781 8.917969 30.417969 8.765625 30.394531 8.617188 Z M 29.785156 9.210938 C 29.769531 9.480469 29.714844 9.738281 29.578125 9.972656 C 29.402344 10.277344 29.152344 10.492188 28.804688 10.566406 C 28.652344 10.597656 28.5 10.613281 28.34375 10.59375 C 28.230469 10.578125 28.121094 10.566406 28.015625 10.527344 C 27.828125 10.460938 27.761719 10.34375 27.757812 10.160156 L 27.753906 7.636719 C 27.753906 7.488281 27.820312 7.453125 27.929688 7.449219 C 28.09375 7.4375 28.261719 7.441406 28.421875 7.457031 C 28.597656 7.472656 28.769531 7.515625 28.929688 7.578125 C 29.050781 7.628906 29.164062 7.699219 29.261719 7.785156 C 29.488281 7.976562 29.636719 8.21875 29.71875 8.503906 C 29.789062 8.734375 29.800781 8.96875 29.789062 9.203125 Z M 33.875 9.621094 C 33.875 9.597656 33.875 9.574219 33.867188 9.550781 C 33.832031 9.320312 33.710938 9.144531 33.523438 9.011719 C 33.398438 8.921875 33.261719 8.863281 33.121094 8.820312 C 33.09375 8.8125 33.074219 8.804688 33.046875 8.800781 C 33.054688 8.78125 33.066406 8.777344 33.078125 8.769531 C 33.160156 8.730469 33.242188 8.683594 33.3125 8.621094 C 33.441406 8.511719 33.527344 8.378906 33.570312 8.214844 C 33.597656 8.125 33.597656 8.039062 33.589844 7.945312 C 33.574219 7.726562 33.460938 7.527344 33.28125 7.402344 C 33.089844 7.257812 32.863281 7.199219 32.628906 7.195312 C 32.179688 7.1875 31.722656 7.195312 31.269531 7.195312 C 31.140625 7.195312 31.011719 7.207031 30.875 7.183594 C 30.851562 7.179688 30.816406 7.171875 30.796875 7.203125 C 30.765625 7.257812 30.730469 7.308594 30.71875 7.371094 C 30.710938 7.402344 30.722656 7.417969 30.753906 7.421875 L 31.042969 7.464844 C 31.15625 7.480469 31.238281 7.542969 31.246094 7.644531 C 31.253906 7.714844 31.257812 7.785156 31.257812 7.855469 L 31.25 8.636719 L 31.242188 10.1875 C 31.242188 10.277344 31.230469 10.367188 31.214844 10.457031 C 31.207031 10.519531 31.164062 10.566406 31.105469 10.582031 C 31.023438 10.609375 30.941406 10.632812 30.855469 10.632812 C 30.804688 10.628906 30.761719 10.660156 30.746094 10.703125 C 30.730469 10.742188 30.714844 10.785156 30.707031 10.824219 C 30.699219 10.871094 30.710938 10.890625 30.761719 10.882812 C 30.800781 10.878906 32.183594 10.914062 32.441406 10.886719 C 32.597656 10.871094 32.746094 10.851562 32.902344 10.804688 C 33.164062 10.71875 33.410156 10.597656 33.601562 10.394531 C 33.761719 10.226562 33.851562 10.023438 33.859375 9.789062 C 33.871094 9.738281 33.871094 9.683594 33.871094 9.625 Z M 31.84375 7.90625 L 31.855469 7.570312 C 31.855469 7.507812 31.878906 7.480469 31.941406 7.464844 C 32.042969 7.445312 32.144531 7.453125 32.246094 7.457031 C 32.34375 7.464844 32.441406 7.480469 32.542969 7.507812 C 32.726562 7.5625 32.867188 7.667969 32.953125 7.84375 C 32.992188 7.921875 33.011719 8.011719 33.011719 8.097656 C 33.015625 8.214844 33.007812 8.328125 32.960938 8.441406 C 32.890625 8.597656 32.777344 8.695312 32.613281 8.726562 C 32.449219 8.753906 31.984375 8.742188 31.914062 8.742188 C 31.851562 8.742188 31.847656 8.734375 31.847656 8.671875 L 31.847656 8.277344 C 31.835938 8.15625 31.835938 8.03125 31.84375 7.910156 Z M 33.203125 10.15625 C 33.132812 10.347656 33.003906 10.476562 32.816406 10.546875 C 32.71875 10.585938 32.617188 10.609375 32.511719 10.601562 C 32.382812 10.597656 32.253906 10.601562 32.121094 10.578125 C 31.945312 10.539062 31.867188 10.371094 31.855469 10.25 C 31.832031 10.035156 31.847656 9.820312 31.84375 9.660156 L 31.84375 9.105469 C 31.84375 9.039062 31.851562 9.019531 31.921875 9.019531 L 32.316406 9.023438 L 32.582031 9.054688 C 32.773438 9.097656 32.945312 9.167969 33.078125 9.3125 C 33.1875 9.429688 33.246094 9.574219 33.257812 9.726562 C 33.269531 9.875 33.261719 10.015625 33.207031 10.15625 Z M 33.203125 10.15625 "/>
<path style=" stroke:none;fill-rule:nonzero;fill:rgb(27.843137%,27.843137%,29.019608%);fill-opacity:1;" d="M 22.566406 8.898438 L 22.675781 8.914062 C 22.792969 8.917969 22.929688 8.875 22.972656 8.710938 C 22.996094 8.632812 22.996094 8.550781 22.972656 8.472656 C 22.945312 8.472656 22.933594 8.496094 22.921875 8.503906 C 22.859375 8.554688 22.789062 8.582031 22.710938 8.589844 C 22.5625 8.609375 22.410156 8.597656 22.265625 8.546875 L 22.058594 8.472656 C 21.917969 8.425781 21.765625 8.40625 21.613281 8.414062 C 21.402344 8.433594 21.199219 8.503906 21.011719 8.605469 C 20.8125 8.714844 20.667969 8.875 20.601562 9.097656 C 20.5625 9.226562 20.558594 9.363281 20.578125 9.496094 C 20.617188 9.800781 20.777344 10.015625 21.0625 10.128906 C 21.078125 10.132812 21.089844 10.140625 21.109375 10.144531 C 21.144531 10.164062 21.148438 10.1875 21.117188 10.214844 L 21.011719 10.289062 L 20.761719 10.441406 C 20.699219 10.480469 20.691406 10.507812 20.710938 10.574219 C 20.734375 10.652344 20.78125 10.722656 20.84375 10.777344 C 20.902344 10.828125 20.964844 10.867188 21.035156 10.894531 C 21.082031 10.914062 21.082031 10.925781 21.042969 10.960938 L 20.800781 11.132812 C 20.722656 11.195312 20.644531 11.253906 20.574219 11.335938 C 20.480469 11.433594 20.445312 11.578125 20.476562 11.710938 C 20.507812 11.855469 20.582031 11.988281 20.691406 12.085938 C 20.800781 12.1875 20.933594 12.261719 21.078125 12.296875 C 21.3125 12.363281 21.554688 12.367188 21.792969 12.320312 C 22.136719 12.257812 22.4375 12.109375 22.671875 11.847656 C 22.835938 11.675781 22.933594 11.476562 22.941406 11.238281 C 22.960938 10.949219 22.769531 10.691406 22.488281 10.625 L 22.261719 10.582031 L 21.574219 10.523438 C 21.496094 10.519531 21.421875 10.503906 21.359375 10.46875 C 21.277344 10.417969 21.257812 10.320312 21.308594 10.257812 C 21.347656 10.210938 21.390625 10.183594 21.449219 10.179688 L 21.585938 10.167969 C 21.851562 10.140625 22.097656 10.027344 22.292969 9.84375 C 22.394531 9.75 22.46875 9.625 22.503906 9.488281 C 22.554688 9.308594 22.554688 9.121094 22.515625 8.9375 C 22.5 8.890625 22.503906 8.886719 22.5625 8.894531 Z M 21.539062 10.980469 C 21.566406 10.984375 21.589844 10.980469 21.613281 10.980469 C 21.792969 10.988281 21.972656 11.003906 22.144531 11.050781 C 22.199219 11.066406 22.253906 11.085938 22.304688 11.113281 C 22.472656 11.203125 22.535156 11.363281 22.515625 11.535156 C 22.488281 11.722656 22.386719 11.855469 22.222656 11.945312 C 22.113281 12.007812 21.992188 12.035156 21.867188 12.046875 C 21.820312 12.050781 21.777344 12.046875 21.730469 12.046875 C 21.585938 12.050781 21.445312 12.035156 21.304688 11.976562 C 21.210938 11.9375 21.128906 11.882812 21.058594 11.808594 C 20.910156 11.660156 20.84375 11.394531 21.0625 11.175781 C 21.195312 11.050781 21.347656 10.964844 21.539062 10.980469 Z M 22.015625 9.675781 C 21.929688 9.898438 21.738281 9.964844 21.542969 9.933594 C 21.367188 9.910156 21.238281 9.8125 21.15625 9.65625 C 21.046875 9.441406 21.015625 9.21875 21.078125 8.988281 C 21.125 8.816406 21.230469 8.6875 21.414062 8.65625 C 21.648438 8.617188 21.875 8.699219 21.992188 8.933594 C 22.054688 9.046875 22.082031 9.1875 22.082031 9.382812 C 22.074219 9.460938 22.058594 9.570312 22.015625 9.675781 Z M 16.742188 9.390625 C 16.703125 9.164062 16.621094 8.960938 16.464844 8.789062 C 16.234375 8.53125 15.941406 8.421875 15.613281 8.417969 C 15.324219 8.414062 15.050781 8.5 14.808594 8.648438 C 14.570312 8.792969 14.394531 9.023438 14.320312 9.289062 C 14.246094 9.535156 14.25 9.78125 14.304688 10.027344 C 14.453125 10.6875 14.964844 10.972656 15.574219 10.929688 C 15.753906 10.917969 15.925781 10.859375 16.089844 10.78125 C 16.332031 10.667969 16.507812 10.488281 16.628906 10.25 C 16.726562 10.050781 16.765625 9.84375 16.761719 9.605469 Z M 16.148438 10.320312 C 16.085938 10.511719 15.917969 10.652344 15.71875 10.671875 C 15.535156 10.695312 15.359375 10.652344 15.207031 10.542969 C 15.09375 10.460938 15.003906 10.351562 14.941406 10.226562 C 14.769531 9.875 14.742188 9.507812 14.828125 9.132812 C 14.859375 9.015625 14.917969 8.910156 15.003906 8.824219 C 15.160156 8.683594 15.339844 8.648438 15.542969 8.691406 C 15.734375 8.734375 15.878906 8.839844 16 8.996094 C 16.121094 9.15625 16.175781 9.339844 16.210938 9.535156 C 16.226562 9.628906 16.226562 9.730469 16.230469 9.792969 C 16.230469 9.992188 16.214844 10.160156 16.152344 10.320312 Z M 25.890625 9.425781 C 25.859375 9.179688 25.769531 8.960938 25.597656 8.777344 C 25.371094 8.527344 25.078125 8.425781 24.75 8.417969 C 24.46875 8.414062 24.210938 8.496094 23.972656 8.632812 C 23.703125 8.792969 23.519531 9.019531 23.449219 9.324219 C 23.363281 9.65625 23.398438 10.011719 23.550781 10.320312 C 23.6875 10.613281 23.921875 10.800781 24.230469 10.886719 C 24.574219 10.976562 24.902344 10.9375 25.21875 10.78125 C 25.496094 10.648438 25.691406 10.4375 25.804688 10.152344 C 25.875 9.984375 25.898438 9.804688 25.902344 9.597656 C 25.90625 9.558594 25.898438 9.492188 25.890625 9.425781 Z M 25.3125 10.265625 C 25.246094 10.492188 25.101562 10.636719 24.863281 10.671875 C 24.6875 10.699219 24.519531 10.65625 24.371094 10.554688 C 24.242188 10.46875 24.148438 10.351562 24.082031 10.210938 C 24.007812 10.066406 23.964844 9.910156 23.949219 9.75 C 23.921875 9.554688 23.921875 9.363281 23.96875 9.164062 C 23.976562 9.125 23.988281 9.089844 24.007812 9.050781 C 24.125 8.757812 24.382812 8.625 24.6875 8.691406 C 24.894531 8.738281 25.046875 8.851562 25.164062 9.023438 C 25.277344 9.191406 25.332031 9.375 25.359375 9.574219 C 25.371094 9.652344 25.375 9.738281 25.371094 9.808594 C 25.371094 9.972656 25.359375 10.121094 25.308594 10.269531 Z M 25.3125 10.265625 "/>
</g>
</svg>
