<?xml version="1.0" encoding="UTF-8"?>
<svg xmlns="http://www.w3.org/2000/svg" xmlns:xlink="http://www.w3.org/1999/xlink" width="36pt" height="18pt" viewBox="0 0 36 18" version="1.1">
<g id="surface1">
<path style=" stroke:none;fill-rule:evenodd;fill:rgb(0%,84.705882%,100%);fill-opacity:1;" d="M 8.785156 9.0625 C 8.785156 9.644531 8.324219 10.113281 7.75 10.113281 C 7.179688 10.113281 6.714844 9.644531 6.714844 9.0625 C 6.714844 8.484375 7.179688 8.015625 7.75 8.015625 C 8.324219 8.015625 8.785156 8.484375 8.785156 9.0625 Z M 8.785156 9.0625 "/>
<path style="fill:none;stroke-width:24;stroke-linecap:butt;stroke-linejoin:miter;stroke:rgb(0%,84.705882%,100%);stroke-opacity:1;stroke-miterlimit:4;" d="M 269.52343 135.435764 C 336.777611 135.435764 399.485029 145.317151 446.65768 161.537542 C 503.492199 181.300318 538.350703 210.75804 538.350703 237.605584 C 538.350703 265.571776 501.408266 297.080352 440.405883 317.402451 C 393.991026 332.504195 333.367539 340.707611 269.52343 340.707611 C 204.163734 340.707611 141.835212 333.24996 95.230906 317.029568 C 36.123007 297.080352 0.696157 265.198893 0.696157 237.605584 C 0.696157 210.944481 34.039074 181.673201 90.1158 162.096866 C 137.477898 145.503593 201.511456 135.435764 269.52343 135.435764 Z M 269.52343 135.435764 " transform="matrix(0.0206191,0,0,0.0209516,2.192677,4.084274)"/>
<path style="fill:none;stroke-width:24;stroke-linecap:butt;stroke-linejoin:miter;stroke:rgb(0%,84.705882%,100%);stroke-opacity:1;stroke-miterlimit:4;" d="M 180.861581 186.893556 C 214.393947 128.537436 253.988662 79.316939 291.688892 46.503274 C 337.156507 6.977723 380.161293 -8.496903 403.463446 4.926869 C 427.71284 18.909965 436.427467 66.825373 423.544976 129.842525 C 413.883108 177.385051 390.202058 233.876758 358.374728 289.249818 C 325.600155 346.114408 287.899924 396.267112 250.957487 428.707894 C 204.163734 469.538534 158.696119 484.640278 134.636172 470.843623 C 111.712917 457.606292 102.808842 413.979033 113.986297 355.622913 C 123.269269 306.402416 146.76087 245.995441 180.861581 186.893556 Z M 180.861581 186.893556 " transform="matrix(0.0206191,0,0,0.0209516,2.192677,4.084274)"/>
<path style="fill:none;stroke-width:24;stroke-linecap:butt;stroke-linejoin:miter;stroke:rgb(0%,84.705882%,100%);stroke-opacity:1;stroke-miterlimit:4;" d="M 180.861581 289.436259 C 147.139767 231.080139 124.027062 172.164695 114.554643 123.31708 C 102.99829 64.401637 111.33402 18.909965 134.257276 5.672634 C 158.696119 -8.496903 204.54263 7.723488 252.473075 50.604982 C 288.847166 82.859323 326.357949 131.520497 358.185279 186.707115 C 391.1493 243.571705 415.777591 300.809177 425.250011 349.28391 C 437.564157 410.62309 427.523392 457.23341 403.842343 471.030064 C 380.729638 484.453836 338.672094 470.284299 293.583376 431.504513 C 255.693697 399.063731 214.772844 348.165262 180.861581 289.436259 Z M 180.861581 289.436259 " transform="matrix(0.0206191,0,0,0.0209516,2.192677,4.084274)"/>
<path style=" stroke:none;fill-rule:evenodd;fill:rgb(0%,84.705882%,100%);fill-opacity:1;" d="M 19.230469 11.75 L 17.964844 9.804688 C 18.609375 9.746094 19.183594 9.269531 19.183594 8.410156 C 19.183594 7.535156 18.570312 6.972656 17.710938 6.972656 L 15.824219 6.972656 L 15.824219 11.742188 L 16.410156 11.742188 L 16.410156 9.847656 L 17.347656 9.847656 L 18.539062 11.742188 Z M 17.640625 9.332031 L 16.410156 9.332031 L 16.410156 7.503906 L 17.640625 7.503906 C 18.199219 7.503906 18.578125 7.875 18.578125 8.410156 C 18.578125 8.953125 18.199219 9.332031 17.640625 9.332031 Z M 21.40625 11.832031 C 21.964844 11.832031 22.421875 11.648438 22.761719 11.308594 L 22.503906 10.957031 C 22.238281 11.234375 21.847656 11.390625 21.460938 11.390625 C 20.726562 11.390625 20.273438 10.84375 20.234375 10.199219 L 22.984375 10.199219 L 22.984375 10.058594 C 22.984375 9.023438 22.378906 8.203125 21.351562 8.203125 C 20.382812 8.203125 19.675781 9.015625 19.675781 10.015625 C 19.675781 11.097656 20.398438 11.832031 21.40625 11.832031 Z M 22.464844 9.804688 L 20.234375 9.804688 C 20.257812 9.269531 20.621094 8.648438 21.34375 8.648438 C 22.121094 8.648438 22.457031 9.285156 22.464844 9.804688 Z M 26.492188 11.75 L 26.492188 9.375 C 26.492188 8.535156 25.894531 8.203125 25.175781 8.203125 C 24.617188 8.203125 24.183594 8.390625 23.816406 8.78125 L 24.066406 9.152344 C 24.367188 8.820312 24.699219 8.671875 25.105469 8.671875 C 25.601562 8.671875 25.964844 8.9375 25.964844 9.402344 L 25.964844 10.023438 C 25.691406 9.703125 25.304688 9.550781 24.839844 9.550781 C 24.261719 9.550781 23.648438 9.914062 23.648438 10.6875 C 23.648438 11.4375 24.261719 11.832031 24.839844 11.832031 C 25.296875 11.832031 25.683594 11.667969 25.964844 11.355469 L 25.964844 11.75 Z M 25.027344 11.449219 C 24.535156 11.449219 24.191406 11.132812 24.191406 10.695312 C 24.191406 10.253906 24.535156 9.9375 25.027344 9.9375 C 25.398438 9.9375 25.761719 10.082031 25.964844 10.367188 L 25.964844 11.015625 C 25.761719 11.308594 25.398438 11.449219 25.027344 11.449219 Z M 29.042969 11.832031 C 29.667969 11.832031 30.035156 11.574219 30.289062 11.234375 L 29.941406 10.902344 C 29.714844 11.214844 29.429688 11.355469 29.078125 11.355469 C 28.351562 11.355469 27.902344 10.78125 27.902344 10.015625 C 27.902344 9.25 28.351562 8.6875 29.078125 8.6875 C 29.429688 8.6875 29.722656 8.820312 29.941406 9.136719 L 30.289062 8.804688 C 30.035156 8.464844 29.667969 8.207031 29.042969 8.207031 C 28.03125 8.207031 27.347656 8.992188 27.347656 10.015625 C 27.347656 11.046875 28.03125 11.832031 29.042969 11.832031 Z M 31.890625 11.832031 C 32.203125 11.832031 32.390625 11.742188 32.527344 11.609375 L 32.371094 11.214844 C 32.300781 11.292969 32.164062 11.355469 32.011719 11.355469 C 31.777344 11.355469 31.664062 11.167969 31.664062 10.910156 L 31.664062 8.761719 L 32.359375 8.761719 L 32.359375 8.292969 L 31.664062 8.292969 L 31.664062 7.347656 L 31.136719 7.347656 L 31.136719 8.292969 L 30.574219 8.292969 L 30.574219 8.765625 L 31.136719 8.765625 L 31.136719 11.027344 C 31.136719 11.539062 31.390625 11.832031 31.890625 11.832031 Z M 31.890625 11.832031 "/>
</g>
</svg>
